<svg width="14" height="14" viewBox="0 0 14 14" fill="none" xmlns="http://www.w3.org/2000/svg">
<g id="heart-3-line">
<path id="Vector" d="M9.62484 1.75C11.3968 1.75 12.8332 3.20833 12.8332 5.25C12.8332 9.33333 8.45817 11.6667 6.99984 12.5417C5.5415 11.6667 1.1665 9.33333 1.1665 5.25C1.1665 3.20833 2.62484 1.75 4.37484 1.75C5.45982 1.75 6.4165 2.33333 6.99984 2.91667C7.58317 2.33333 8.53984 1.75 9.62484 1.75ZM7.54461 10.8522C8.05888 10.5283 8.52234 10.2057 8.95686 9.86003C10.6945 8.47758 11.6665 6.96704 11.6665 5.25C11.6665 3.87378 10.7699 2.91667 9.62484 2.91667C8.99723 2.91667 8.31776 3.24865 7.82479 3.74162L6.99984 4.56658L6.17489 3.74162C5.6819 3.24865 5.00245 2.91667 4.37484 2.91667C3.24262 2.91667 2.33317 3.88296 2.33317 5.25C2.33317 6.96704 3.30516 8.47758 5.04284 9.86003C5.47734 10.2057 5.9408 10.5283 6.45506 10.8522C6.62919 10.9619 6.80215 11.0675 6.99984 11.1855C7.19753 11.0675 7.37049 10.9619 7.54461 10.8522Z" fill="#2A2A2A"/>
</g>
</svg>
