<svg width="12" height="12" viewBox="0 0 12 12" fill="none" xmlns="http://www.w3.org/2000/svg">
<path d="M6.65085 8.92736L4.20148 7.5913C3.77568 8.04635 3.16975 8.33073 2.4974 8.33073C1.20873 8.33073 0.164062 7.28604 0.164062 5.9974C0.164062 4.70873 1.20873 3.66406 2.4974 3.66406C3.16972 3.66406 3.77563 3.94841 4.20142 4.40341L6.65085 3.06739C6.60505 2.88497 6.58073 2.69402 6.58073 2.4974C6.58073 1.20873 7.62542 0.164062 8.91406 0.164062C10.2027 0.164062 11.2474 1.20873 11.2474 2.4974C11.2474 3.78606 10.2027 4.83073 8.91406 4.83073C8.24171 4.83073 7.6358 4.54636 7.20997 4.09133L4.7606 5.42736C4.8064 5.60977 4.83073 5.80075 4.83073 5.9974C4.83073 6.19404 4.80641 6.38496 4.76062 6.56737L7.21003 7.90344C7.6358 7.44844 8.24171 7.16406 8.91406 7.16406C10.2027 7.16406 11.2474 8.20875 11.2474 9.4974C11.2474 10.786 10.2027 11.8307 8.91406 11.8307C7.62542 11.8307 6.58073 10.786 6.58073 9.4974C6.58073 9.30075 6.60505 9.10977 6.65085 8.92736ZM2.4974 7.16406C3.14173 7.16406 3.66406 6.64175 3.66406 5.9974C3.66406 5.35305 3.14173 4.83073 2.4974 4.83073C1.85306 4.83073 1.33073 5.35305 1.33073 5.9974C1.33073 6.64175 1.85306 7.16406 2.4974 7.16406ZM8.91406 3.66406C9.55841 3.66406 10.0807 3.14173 10.0807 2.4974C10.0807 1.85306 9.55841 1.33073 8.91406 1.33073C8.26971 1.33073 7.7474 1.85306 7.7474 2.4974C7.7474 3.14173 8.26971 3.66406 8.91406 3.66406ZM8.91406 10.6641C9.55841 10.6641 10.0807 10.1417 10.0807 9.4974C10.0807 8.85305 9.55841 8.33073 8.91406 8.33073C8.26971 8.33073 7.7474 8.85305 7.7474 9.4974C7.7474 10.1417 8.26971 10.6641 8.91406 10.6641Z" fill="#A9A9A9"/>
</svg>
